HIERARCHY
ROOT Hips
{
  OFFSET 0 0 0
  CHANNELS 6 Xposition Yposition Zposition Zrotation Yrotation Xrotation
  JOINT LeftThigh
  {
    OFFSET 8.409438 0 -5.917753
    CHANNELS 3 Zrotation Yrotation Xrotation
    JOINT LeftLeg
    {
      OFFSET 0 0 -42.358652
      CHANNELS 3 Zrotation Yrotation Xrotation
      JOINT LeftFoot
      {
        OFFSET 0 0 -39.357303
        CHANNELS 3 Zrotation Yrotation Xrotation
      }
    }
  }
  JOINT RightThigh
  {
    OFFSET -8.409438 0 -5.917753
    CHANNELS 3 Zrotation Yrotation Xrotation
    JOINT RightLeg
    {
      OFFSET 0 0 -42.358652
      CHANNELS 3 Zrotation Yrotation Xrotation
      JOINT RightFoot
      {
        OFFSET 0 0 -39.357303
        CHANNELS 3 Zrotation Yrotation Xrotation
      }
    }
  }
  JOINT SpineLow
  {
    OFFSET 0 0 4.719101
    CHANNELS 3 Zrotation Yrotation Xrotation
    JOINT SpineMid
    {
      OFFSET 0 0 12.899191
      CHANNELS 3 Zrotation Yrotation Xrotation
      JOINT Chest
      {
        OFFSET 0 0 12.899191
        CHANNELS 3 Zrotation Yrotation Xrotation
        JOINT LeftShoulder
        {
          OFFSET 7.550562 1.41573 9.438202
          CHANNELS 3 Zrotation Yrotation Xrotation
          JOINT LeftArm
          {
            OFFSET 9.155056 0 4.247191
            CHANNELS 3 Zrotation Yrotation Xrotation
            JOINT LeftForearm
            {
              OFFSET 0 0 25.771955
              CHANNELS 3 Zrotation Yrotation Xrotation
              JOINT LeftHand
              {
                OFFSET 0 0 25.197169
                CHANNELS 3 Zrotation Yrotation Xrotation
              }
            }
          }
        }
        JOINT RightShoulder
        {
          OFFSET -7.550562 1.41573 9.438202
          CHANNELS 3 Zrotation Yrotation Xrotation
          JOINT RightArm
          {
            OFFSET -9.155056 0 4.247191
            CHANNELS 3 Zrotation Yrotation Xrotation
            JOINT RightForearm
            {
              OFFSET 0 0 -25.771955
              CHANNELS 3 Zrotation Yrotation Xrotation
              JOINT RightHand
              {
                OFFSET 0 0 -25.197169
                CHANNELS 3 Zrotation Yrotation Xrotation
              }
            }
          }
        }
        JOINT Neck
        {
          OFFSET 0 0 15.101124
          CHANNELS 3 Zrotation Yrotation Xrotation
          JOINT Head
          {
            OFFSET 0 0 11.325843
            CHANNELS 3 Zrotation Yrotation Xrotation
            End Site
            {
              OFFSET 0 0 14.157303
            }
          }
        }
      }
    }
  }
}
MOTION
Frames: 14
Frame Time: 0.0
0.0  89.887642  0.0  -3.081936  13.361635  -126.5551  7.043856  -14.114979  23.621042  -19.080139  11.834824  21.510909  -3.780252  0.971529  1.770212  30.282402  7.792411  -72.420419  -12.706918  10.848154  105.460691  13.77422  4.333317  3.326187  -0.641366  -0.853613  2.435655  -1.837667  -2.265783  6.682146  -1.837667  -2.265783  6.682146  -19.849714  39.262616  19.34153  -135.553886  60.455773  -69.847181  -8.583332  -26.636353  32.015642  70.452601  15.147699  31.676879  13.714956  16.840419  37.606647  25.568005  30.308204  -24.429357  -11.696525  33.431845  -58.280764  104.892444  -27.17847  -0.389342  -35.850758  9.6537  13.631976  -27.056068  6.471059  10.81583  
0.0  89.887642  0.0  -2.85182  12.769664  -126.194365  7.830106  -14.346722  23.2234  -19.362836  12.021596  21.440435  -3.859257  1.050879  1.71607  30.734617  7.519707  -72.223206  -12.473017  10.845663  105.953535  13.755776  4.489645  3.345137  -0.706236  -0.829374  2.456476  -2.013023  -2.192391  6.740387  -2.013023  -2.192391  6.740387  -19.477046  38.917763  19.151538  -135.981864  60.303493  -70.66645  -7.898642  -26.857609  31.708746  70.855466  14.786889  31.249487  14.113945  16.974944  37.59678  25.898048  30.205154  -24.383939  -12.159154  32.39288  -58.741049  105.110661  -27.510491  1.554386  -35.379286  9.399081  13.525358  -26.698767  6.295172  10.713081  
0.0  89.887642  0.0  -2.570246  12.201633  -125.813453  8.454125  -14.410908  22.81007  -19.706151  12.317709  21.296011  -3.769972  1.109717  1.708303  31.027345  7.501304  -72.045538  -12.239306  10.42379  106.674966  13.703997  4.458564  3.276619  -0.794636  -0.78016  2.444927  -2.249007  -2.049419  6.709765  -2.249007  -2.049419  6.709765  -18.944757  38.478612  19.105061  -136.559846  60.0116  -71.876198  -7.600185  -26.986533  31.637806  71.206963  14.412763  31.074824  14.930306  16.643419  37.807889  27.411377  30.256735  -23.758563  -13.785673  31.963062  -59.025031  104.963489  -22.41196  0.197616  -34.659751  9.240145  13.530873  -26.158562  6.190112  10.695734  
0.0  89.887642  0.0  -2.229017  11.545836  -125.566842  8.98716  -14.41947  22.602752  -19.771405  12.509688  21.237635  -3.790767  1.166115  1.667864  31.322315  7.39475  -71.475907  -12.310544  9.942999  107.040032  13.619223  4.684392  3.344215  -0.817273  -0.745571  2.455818  -2.30758  -1.95231  6.738868  -2.30758  -1.95231  6.738868  -18.690772  38.173221  19.116458  -137.056362  59.729265  -72.924298  -7.656762  -27.041444  31.782458  71.490147  14.133074  31.162607  15.117543  16.752543  37.861973  28.003897  29.851027  -23.418828  -14.421241  31.263222  -59.850002  104.384138  -22.612555  2.107808  -34.262121  9.0824  13.449811  -25.857807  6.084088  10.619455  
0.0  89.887642  0.0  -1.812246  10.926034  -125.319123  9.292035  -14.107515  22.416753  -19.784514  12.653404  21.161905  -3.715258  1.244323  1.668776  31.459912  7.4062  -71.118806  -12.260756  9.430304  107.734263  13.519539  4.896443  3.427091  -0.801839  -0.691115  2.47364  -2.260281  -1.804615  6.785072  -2.260281  -1.804615  6.785072  -18.776297  37.748378  18.997252  -137.564354  59.372624  -74.163838  -7.952447  -27.057408  31.972158  71.701715  13.754164  31.614945  15.003212  16.726232  37.844245  29.182849  29.51947  -22.911443  -15.481503  31.046268  -60.671145  103.75762  -22.744071  3.845771  -33.803566  8.887612  13.433021  -25.512091  5.947797  10.588703  
0.0  89.887642  0.0  -1.457992  10.05358  -125.030023  9.665165  -13.907967  22.149409  -19.576797  12.729911  21.198838  -3.620819  1.308518  1.693565  31.649565  7.324591  -70.673912  -12.160504  8.968285  108.276152  13.542454  5.109112  3.497911  -0.731281  -0.650136  2.509265  -2.064247  -1.698867  6.87917  -2.064247  -1.698867  6.87917  -18.979044  37.248426  18.890828  -137.837662  59.046192  -75.058487  -8.160435  -27.020691  32.416124  71.644761  13.667779  31.989756  14.728003  16.748118  37.685205  29.647667  29.051268  -22.674113  -16.065979  30.825992  -61.740594  103.000684  -22.79038  5.358464  -33.605138  8.550069  13.343013  -25.358321  5.70253  10.500198  
0.0  89.887642  0.0  -1.052379  9.325381  -124.660185  9.857617  -13.432623  21.770642  -19.293718  12.751578  21.31457  -3.539528  1.349007  1.708243  31.589557  7.204262  -70.456293  -11.724457  8.478413  109.125271  13.858682  5.377112  3.745982  -0.653444  -0.611802  2.522098  -1.847989  -1.601966  6.91111  -1.847989  -1.601966  6.911109  -19.396444  36.842478  18.705482  -138.260824  58.752267  -76.130772  -8.328653  -27.048607  32.86111  71.649501  13.523266  32.416011  14.270766  16.679583  37.661505  30.185506  28.790294  -22.404278  -16.791484  30.698097  -62.814131  102.056662  -22.772264  6.801166  -33.360368  8.283452  13.271809  -25.170859  5.510609  10.428929  
0.0  89.887642  0.0  -0.655933  8.317069  -124.424918  10.234952  -13.122893  21.478464  -18.919092  12.704941  21.4786  -3.384674  1.395322  1.792474  31.636613  6.946413  -70.143096  -11.389623  7.844171  109.952172  13.92153  5.55077  3.803396  -0.537696  -0.581695  2.544031  -1.529272  -1.531366  6.96755  -1.529272  -1.531365  6.967549  -19.643723  36.527843  18.832832  -138.269641  58.613016  -76.74118  -8.516451  -27.142142  33.357597  71.860532  13.391351  32.902867  13.773836  16.774072  37.702562  30.52802  28.4232  -22.311625  -17.192572  30.41571  -64.045002  100.941919  -22.862914  8.363441  -33.256119  7.987333  13.204493  -25.088321  5.293323  10.361443  
0.0  89.887642  0.0  -0.237464  7.357129  -124.070738  10.7398  -12.815395  21.074124  -18.344034  12.617765  21.720169  -3.396612  1.371418  1.823107  31.48741  6.758692  -69.771897  -11.063376  7.042456  110.69185  13.978336  5.732784  3.886514  -0.424028  -0.540127  2.550186  -1.214649  -1.429761  6.980913  -1.214649  -1.429761  6.980913  -19.966249  36.144948  18.88256  -138.520021  58.472108  -77.52941  -8.525661  -27.464239  33.790634  72.249406  13.263297  33.416745  13.44144  16.608098  37.819299  30.499185  28.161305  -22.236839  -17.473631  30.152871  -65.29041  99.694748  -22.994803  10.061279  -32.990654  7.669983  13.166803  -24.885117  5.061762  10.312794  
0.0  89.887642  0.0  0.116994  6.261008  -123.752375  11.103479  -12.433102  20.747812  -17.635634  12.383109  21.882464  -3.389832  1.376453  1.850356  31.318086  6.393037  -69.40749  -10.699801  6.308576  111.43956  13.90155  5.948814  3.978455  -0.329854  -0.507428  2.545878  -0.953977  -1.350506  6.966572  -0.953977  -1.350506  6.966573  -20.017383  35.957487  19.127187  -138.397575  58.429728  -78.03777  -8.497159  -27.875528  34.348354  72.730494  13.165679  33.776632  13.099855  16.636881  37.903228  30.76118  27.85986  -22.178261  -17.569558  30.013821  -66.535817  98.270636  -23.275736  11.887047  -32.746283  7.377936  13.120839  -24.697784  4.849271  10.259773  
0.0  89.887642  0.0  0.52959  5.246623  -123.531263  11.505611  -12.057871  20.647787  -17.072176  12.107942  21.906622  -3.347044  1.411139  1.841641  31.055847  6.073312  -68.824421  -10.358632  5.618602  112.164528  13.766482  6.180598  4.104342  -0.27919  -0.441797  2.567995  -0.809106  -1.176399  7.025037  -0.809106  -1.176399  7.025037  -20.022664  35.552955  19.229319  -138.93961  57.961813  -79.17532  -8.164184  -28.62018  34.987362  73.422551  13.292683  33.992998  13.206851  16.407743  38.026734  30.728656  27.646835  -22.211224  -17.582949  30.01657  -67.781748  96.813671  -23.71249  13.686647  -32.208569  7.057963  13.093488  -24.290413  4.620805  10.215488  
0.0  89.887642  0.0  0.926711  3.985777  -123.492816  12.057671  -11.916124  20.648364  -16.507955  11.926756  21.901411  -3.235617  1.451194  1.855171  30.946753  5.63773  -68.043656  -10.155882  4.928798  112.855455  13.531293  6.458559  4.217351  -0.225732  -0.398064  2.622088  -0.659358  -1.062131  7.17143  -0.659358  -1.062131  7.17143  -19.85257  35.338356  19.338971  -138.785343  57.836175  -79.767308  -8.257759  -29.243693  35.810229  74.225826  13.700972  34.036182  13.145674  16.496254  37.981339  31.233396  27.501533  -22.185325  -17.641502  30.042729  -69.002189  95.620903  -24.237051  15.393213  -31.695436  6.754921  12.993438  -23.900551  4.408361  10.118297  
0.0  89.887642  0.0  1.360503  2.681311  -123.466321  12.727304  -11.883915  20.599024  -15.912389  11.857355  21.961193  -3.102771  1.442682  1.853585  30.805471  5.259083  -67.181909  -9.970827  4.251956  113.545871  13.303284  6.738542  4.345347  -0.179377  -0.347056  2.683109  -0.528119  -0.92741  7.336983  -0.528119  -0.92741  7.336983  -19.649683  35.041259  19.376785  -138.914901  57.288399  -80.842635  -8.085928  -29.963998  36.958088  74.989646  14.357138  33.846952  13.466712  16.394598  38.036276  31.452113  27.564771  -22.214451  -17.810142  30.033008  -70.173384  94.816216  -24.783066  16.942216  -31.002408  6.455827  12.916598  -23.376107  4.20128  10.036972  
0.0  89.887642  0.0  1.819618  1.360557  -123.345836  13.335756  -11.764808  20.399664  -15.131133  11.763364  22.083185  -2.945508  1.456298  1.883642  30.514546  4.972392  -66.260239  -9.752453  3.528933  114.182626  13.078928  7.044016  4.481652  -0.139841  -0.293772  2.711303  -0.414614  -0.786168  7.41307  -0.414614  -0.786168  7.41307  -19.394282  34.868195  19.50967  -138.829713  56.945228  -81.573485  -8.000529  -30.751049  37.927862  75.574342  15.119255  33.434542  13.569598  16.434525  37.990376  32.128916  27.888132  -22.073593  -18.095515  29.975113  -71.283647  94.160326  -25.37865  18.543311  -30.37822  6.209351  12.871293  -22.904256  4.030744  9.983374  
